Coordinates
version=1
nRows=13
nColumns=40
inDegrees=yes

Units are S.I. units (second, meters, Newtons, ...)
If the header above contains a line with 'inDegrees', this indicates whether rotational values are in degrees (yes) or radians (no).

endheader
time	pelvis_tilt	pelvis_list	pelvis_rotation	pelvis_tx	pelvis_ty	pelvis_tz	hip_flexion_r	hip_adduction_r	hip_rotation_r	knee_angle_r	knee_angle_r_beta	ankle_angle_r	subtalar_angle_r	mtp_angle_r	hip_flexion_l	hip_adduction_l	hip_rotation_l	knee_angle_l	knee_angle_l_beta	ankle_angle_l	subtalar_angle_l	mtp_angle_l	lumbar_extension	lumbar_bending	lumbar_rotation	arm_flex_r	arm_add_r	arm_rot_r	elbow_flex_r	pro_sup_r	wrist_flex_r	wrist_dev_r	arm_flex_l	arm_add_l	arm_rot_l	elbow_flex_l	pro_sup_l	wrist_flex_l	wrist_dev_l
      9.07500000	    -19.12569043	      4.93085647	      1.65561254	     -0.34976952	      0.79098863	     -1.00982026	     20.06610581	     -9.60908642	     -3.17231587	     89.18010512	      1.55648646	     -9.08079952	      0.00000000	      0.00000000	     56.53866766	      5.79752916	     -9.50313007	     64.94774844	      1.13355205	     19.49196957	      0.00000000	      0.00000000	    -13.89851539	     -9.35804125	      2.55695413	     28.31511641	     -6.35622260	     14.61156113	     10.34728243	     81.99097502	      0.00000000	      0.00000000	     23.96786287	    -18.33681976	     15.14378688	     36.44825827	     85.62768119	      0.00000000	      0.00000000
      9.08000000	    -19.05061488	      4.85406432	      1.55938048	     -0.34927115	      0.79190968	     -1.01002682	     20.10672633	     -9.55475862	     -3.17563157	     89.17713300	      1.55643459	     -9.12690085	      0.00000000	      0.00000000	     56.30779273	      5.71763057	     -9.49207220	     64.77390010	      1.13051783	     19.52619630	      0.00000000	      0.00000000	    -13.76875212	     -9.23654394	      2.67242819	     27.90111261	     -6.35488080	     14.96877082	     10.18394523	     82.60641429	      0.00000000	      0.00000000	     23.31164985	    -17.98623733	     14.59459942	     36.12593220	     85.48473833	      0.00000000	      0.00000000
      9.08500000	    -18.99142715	      4.75937838	      1.53418614	     -0.34884916	      0.79273890	     -1.01009538	     20.16204474	     -9.46422071	     -3.22930432	     89.21813347	      1.55715018	     -9.04964913	      0.00000000	      0.00000000	     56.16010451	      5.64535349	     -9.43586471	     64.64061314	      1.12819153	     19.24404914	      0.00000000	      0.00000000	    -13.62583834	     -9.11021015	      2.68302944	     27.60486903	     -6.19173689	     15.27434258	      9.76971867	     82.07210974	      0.00000000	      0.00000000	     22.64126953	    -17.94427730	     14.72279080	     36.08330880	     85.15537844	      0.00000000	      0.00000000
      9.09000000	    -18.80949085	      4.77082741	      1.46433050	     -0.34831481	      0.79380190	     -1.01031850	     20.07358657	     -9.52555389	     -3.25895588	     89.21988094	      1.55718068	     -9.07349603	      0.00000000	      0.00000000	     55.78137975	      5.71027903	     -9.36563110	     64.38812617	      1.12378480	     19.47489601	      0.00000000	      0.00000000	    -13.63144694	     -9.08974381	      2.82526109	     27.06675985	     -6.27712324	     15.43453005	      9.98466242	     82.74982016	      0.00000000	      0.00000000	     22.11257765	    -17.53826297	     14.00643228	     35.64030916	     85.43612914	      0.00000000	      0.00000000
      9.09500000	    -18.78764122	      4.61405014	      1.43006391	     -0.34800728	      0.79464508	     -1.01043721	     20.18339606	     -9.38594750	     -3.34123059	     89.22080061	      1.55719673	     -9.15332227	      0.00000000	      0.00000000	     55.65023490	      5.61704722	     -9.23653995	     64.23866019	      1.12117613	     19.44537327	      0.00000000	      0.00000000	    -13.46342088	     -8.89526254	      2.90255958	     26.71097949	     -6.22082025	     15.65282981	      9.81488279	     82.60592154	      0.00000000	      0.00000000	     21.53411672	    -17.31015036	     13.72593867	     35.41879811	     85.38720953	      0.00000000	      0.00000000
      9.10000000	    -18.70828201	      4.51015367	      1.40463821	     -0.34766298	      0.79553559	     -1.01060883	     20.23565724	     -9.31114035	     -3.41829754	     89.26645774	      1.55799360	     -9.04325016	      0.00000000	      0.00000000	     55.44958651	      5.58274849	     -9.11983527	     64.06497947	      1.11814483	     19.38252717	      0.00000000	      0.00000000	    -13.35966759	     -8.75220614	      2.95357142	     26.33100522	     -6.20724657	     15.98344294	      9.77697376	     82.54912382	      0.00000000	      0.00000000	     20.90626004	    -17.18037126	     13.58413519	     35.35921361	     85.39836612	      0.00000000	      0.00000000
      9.10500000	    -18.58276254	      4.42975890	      1.32305807	     -0.34723297	      0.79653571	     -1.01071653	     20.22845203	     -9.24498040	     -3.44969765	     89.25810874	      1.55784788	     -9.12536334	      0.00000000	      0.00000000	     55.16825048	      5.51505114	     -9.06371218	     63.85788782	      1.11453040	     19.38746563	      0.00000000	      0.00000000	    -13.30592169	     -8.63182392	      3.05483065	     26.01796358	     -6.17006303	     16.02665634	      9.63372412	     83.20840432	      0.00000000	      0.00000000	     20.37262049	    -16.78440183	     12.78839595	     34.98061476	     85.28945447	      0.00000000	      0.00000000
      9.11000000	    -18.46378168	      4.36298658	      1.26646897	     -0.34680941	      0.79758814	     -1.01082480	     20.21630804	     -9.18464158	     -3.47731146	     89.24574056	      1.55763202	     -9.06119230	      0.00000000	      0.00000000	     54.90072089	      5.51549270	     -8.92453918	     63.65301015	      1.11095461	     19.38439054	      0.00000000	      0.00000000	    -13.25714012	     -8.53504688	      3.16823377	     25.61970433	     -6.19683325	     16.52718933	      9.66068702	     83.08511698	      0.00000000	      0.00000000	     19.85594799	    -16.67716582	     12.82909926	     34.76775326	     85.14659720	      0.00000000	      0.00000000
      9.11500000	    -18.33704808	      4.21339637	      1.23811479	     -0.34648745	      0.79857904	     -1.01095463	     20.22073080	     -9.04147397	     -3.55500449	     89.26596223	      1.55798495	     -8.95885224	      0.00000000	      0.00000000	     54.69778261	      5.44517359	     -8.75817267	     63.55025596	      1.10916121	     19.16287147	      0.00000000	      0.00000000	    -13.20892946	     -8.33948957	      3.24700042	     25.36162792	     -6.13848490	     16.66695924	      9.43580221	     82.69441692	      0.00000000	      0.00000000	     19.36118199	    -16.48626117	     12.79009104	     34.52417297	     84.91124742	      0.00000000	      0.00000000
      9.12000000	    -18.14562371	      4.37824849	      0.93958137	     -0.34547842	      0.79959239	     -1.01101785	     20.15314462	     -9.23524605	     -3.35354658	     89.26445362	      1.55795862	     -8.98507069	      0.00000000	      0.00000000	     54.23587117	      5.38297802	     -9.08678583	     63.25605372	      1.10402641	     19.39265129	      0.00000000	      0.00000000	    -13.15371148	     -8.51763573	      3.58394072	     24.85067951	     -6.20294837	     16.62314376	      9.67097583	     82.99081774	      0.00000000	      0.00000000	     18.83456948	    -16.19726965	     12.30051721	     34.18560593	     85.12580860	      0.00000000	      0.00000000
      9.12500000	    -18.00572722	      4.26689154	      0.87331087	     -0.34509549	      0.80060357	     -1.01110456	     20.13059379	     -9.14085949	     -3.40220174	     89.26912874	      1.55804022	     -9.03604900	      0.00000000	      0.00000000	     53.97521725	      5.34937491	     -8.88395363	     63.09818226	      1.10127103	     19.37193004	      0.00000000	      0.00000000	    -13.11916192	     -8.37542197	      3.68126068	     24.54278682	     -6.19731088	     16.67438179	      9.66749481	     83.17087307	      0.00000000	      0.00000000	     18.33892986	    -15.99100603	     12.02506994	     34.01104684	     85.15538051	      0.00000000	      0.00000000
      9.13000000	    -17.90834876	      4.10723414	      0.82107691	     -0.34468755	      0.80153379	     -1.01122784	     20.14842786	     -8.99381686	     -3.48087715	     89.27821706	      1.55819884	     -8.99335256	      0.00000000	      0.00000000	     53.74925668	      5.25401422	     -8.73838829	     62.94565717	      1.09860897	     19.35865096	      0.00000000	      0.00000000	    -13.02756639	     -8.17690834	      3.79769830	     24.22500211	     -6.20371985	     16.80883666	      9.63566227	     83.09165925	      0.00000000	      0.00000000	     17.86582257	    -15.81963588	     11.96095530	     33.81949415	     85.05933365	      0.00000000	      0.00000000
      9.13500000	    -17.95209796	      3.87498774	      0.92160982	     -0.34464511	      0.80225890	     -1.01142666	     20.32638720	     -8.76518328	     -3.66243984	     89.32314370	      1.55898296	     -8.84952015	      0.00000000	      0.00000000	     53.73152580	      5.22115854	     -8.42672695	     62.80835046	      1.09621251	     19.25892961	      0.00000000	      0.00000000	    -12.81445647	     -7.86834289	      3.77633180	     23.94423715	     -6.19442205	     16.87546202	      9.63007642	     83.02307420	      0.00000000	      0.00000000	     17.43297439	    -15.69179947	     12.03175112	     33.58213483	     84.97993683	      0.00000000	      0.00000000
